<svg xmlns="http://www.w3.org/2000/svg" width="126" height="43" viewBox="0 0 126 43">
    <g fill="none" fill-rule="evenodd">
        <path fill="#000" d="M9.097 0h106.879c3.163 0 4.31.33 5.466.948a6.448 6.448 0 0 1 2.683 2.682c.618 1.157.948 2.304.948 5.467v24.384c0 3.163-.33 4.31-.948 5.467a6.448 6.448 0 0 1-2.683 2.682c-1.156.619-2.303.948-5.466.948H9.097c-3.163 0-4.31-.33-5.467-.948a6.448 6.448 0 0 1-2.682-2.682C.329 37.79 0 36.644 0 33.48V9.097c0-3.163.33-4.31.948-5.467A6.448 6.448 0 0 1 3.63.948C4.787.329 5.934 0 9.097 0z"/>
        <path fill="#FFF" d="M26 21.31c-.027-2.888 2.363-4.294 2.473-4.36-1.354-1.973-3.453-2.243-4.19-2.264-1.762-.186-3.471 1.055-4.37 1.055-.915 0-2.298-1.037-3.787-1.006-1.917.03-3.712 1.14-4.695 2.864-2.03 3.514-.516 8.68 1.428 11.52.973 1.392 2.11 2.946 3.599 2.89 1.456-.06 2-.928 3.756-.928 1.742 0 2.252.929 3.77.894 1.562-.025 2.546-1.398 3.486-2.803 1.124-1.594 1.575-3.166 1.593-3.245-.037-.013-3.034-1.156-3.064-4.618M23.131 12.817c.783-.979 1.319-2.31 1.17-3.664-1.133.05-2.55.784-3.367 1.743-.722.843-1.366 2.227-1.2 3.527 1.273.096 2.58-.642 3.397-1.606M39.95 26.862h3.938l-1.942-5.718h-.054l-1.943 5.718zm4.453 1.626h-4.968L38.24 32.01h-2.104l4.706-13.035h2.187l4.706 13.035h-2.14l-1.193-3.523zM55.895 27.26c0-1.924-.995-3.19-2.512-3.19-1.49 0-2.493 1.292-2.493 3.19 0 1.914 1.002 3.197 2.493 3.197 1.517 0 2.512-1.256 2.512-3.197zm2.004 0c0 2.952-1.58 4.85-3.966 4.85-1.354 0-2.43-.605-2.99-1.662h-.045v4.706h-1.951V22.507h1.888v1.58h.036c.543-1.019 1.7-1.679 3.026-1.679 2.412 0 4.002 1.906 4.002 4.852zM66.353 27.26c0-1.924-.994-3.19-2.51-3.19-1.49 0-2.493 1.292-2.493 3.19 0 1.914 1.002 3.197 2.493 3.197 1.516 0 2.51-1.256 2.51-3.197zm2.005 0c0 2.952-1.58 4.85-3.965 4.85-1.354 0-2.43-.605-2.99-1.662h-.045v4.706h-1.951V22.507h1.888v1.58h.036c.542-1.019 1.698-1.679 3.026-1.679 2.412 0 4.001 1.906 4.001 4.852zM75.272 28.379c.144 1.293 1.4 2.141 3.116 2.141 1.645 0 2.828-.848 2.828-2.014 0-1.012-.714-1.618-2.403-2.032l-1.69-.408c-2.393-.578-3.505-1.697-3.505-3.514 0-2.248 1.961-3.793 4.744-3.793 2.754 0 4.642 1.545 4.705 3.793h-1.969c-.117-1.3-1.193-2.086-2.764-2.086-1.572 0-2.647.795-2.647 1.95 0 .922.687 1.465 2.367 1.88l1.436.352c2.675.633 3.786 1.707 3.786 3.614 0 2.439-1.943 3.966-5.032 3.966-2.89 0-4.843-1.492-4.97-3.85h1.998M87.485 20.259v2.248h1.808v1.545h-1.808v5.239c0 .814.362 1.193 1.157 1.193.198 0 .515-.027.641-.045v1.536c-.216.054-.65.09-1.083.09-1.924 0-2.674-.723-2.674-2.565v-5.448h-1.382v-1.545h1.382v-2.248h1.96M97.367 27.26c0-2.051-.94-3.263-2.52-3.263-1.581 0-2.52 1.22-2.52 3.263 0 2.06.939 3.26 2.52 3.26 1.58 0 2.52-1.2 2.52-3.26zm-7.028 0c0-2.99 1.762-4.87 4.508-4.87 2.755 0 4.508 1.88 4.508 4.87 0 2.998-1.744 4.868-4.508 4.868-2.764 0-4.508-1.87-4.508-4.868zM100.963 22.507h1.861v1.617h.045c.298-1.074 1.165-1.716 2.285-1.716.28 0 .515.037.669.073v1.824c-.154-.063-.498-.118-.877-.118-1.255 0-2.032.85-2.032 2.187v5.637h-1.951v-9.504M108.222 26.383h4.751c-.045-1.455-.975-2.412-2.33-2.412-1.346 0-2.32.976-2.42 2.412zm6.594 2.836c-.262 1.726-1.941 2.91-4.091 2.91-2.765 0-4.481-1.852-4.481-4.824 0-2.981 1.725-4.915 4.399-4.915 2.63 0 4.283 1.807 4.283 4.688v.669h-6.713v.117c0 1.626 1.021 2.692 2.557 2.692 1.083 0 1.933-.515 2.195-1.337h1.851zM38.416 14.542h1.18c1.31 0 2.065-.816 2.065-2.253 0-1.414-.767-2.24-2.065-2.24h-1.18v4.493zm1.289-5.377c1.857 0 2.947 1.14 2.947 3.112 0 2-1.081 3.151-2.947 3.151h-2.262V9.165h2.262zM47.25 13.062c0-1.024-.461-1.623-1.268-1.623-.812 0-1.267.599-1.267 1.623 0 1.033.455 1.628 1.267 1.628.807 0 1.268-.6 1.268-1.628zm-3.499 0c0-1.523.85-2.452 2.23-2.452 1.377 0 2.228.929 2.228 2.452 0 1.533-.847 2.457-2.227 2.457-1.385 0-2.231-.924-2.231-2.457zM54.134 15.428h-.967l-.977-3.482h-.074l-.972 3.482h-.959l-1.303-4.727h.947l.846 3.607h.07l.972-3.607h.894l.972 3.607h.074l.843-3.607h.933l-1.299 4.727M56.529 10.701h.897v.75h.07c.23-.524.698-.841 1.41-.841 1.055 0 1.637.633 1.637 1.758v3.06h-.934v-2.826c0-.76-.33-1.138-1.02-1.138s-1.128.461-1.128 1.198v2.766h-.932v-4.727M62.029 15.428h.933V8.856h-.933zM67.757 13.062c0-1.024-.46-1.623-1.268-1.623-.812 0-1.267.599-1.267 1.623 0 1.033.455 1.628 1.267 1.628.807 0 1.268-.6 1.268-1.628zm-3.499 0c0-1.523.85-2.452 2.23-2.452 1.377 0 2.228.929 2.228 2.452 0 1.533-.847 2.457-2.227 2.457-1.385 0-2.23-.924-2.23-2.457zM72.736 13.688v-.396l-1.153.073c-.65.044-.946.266-.946.683 0 .425.369.672.876.672.703 0 1.223-.447 1.223-1.032zm-3.037.403c0-.85.633-1.342 1.758-1.411l1.28-.074v-.408c0-.498-.33-.78-.967-.78-.52 0-.882.19-.986.524h-.903c.096-.811.859-1.332 1.932-1.332 1.185 0 1.852.59 1.852 1.588v3.23h-.897v-.664h-.075c-.28.473-.797.742-1.419.742-.91 0-1.575-.551-1.575-1.415zM75.855 13.062c0 1.002.472 1.606 1.263 1.606.786 0 1.272-.612 1.272-1.602 0-.984-.491-1.606-1.272-1.606-.785 0-1.263.608-1.263 1.602zm-.964 0c0-1.494.769-2.44 1.962-2.44.648 0 1.194.31 1.45.83h.07V8.856h.932v6.572h-.893v-.747h-.075c-.28.517-.833.825-1.484.825-1.202 0-1.962-.946-1.962-2.444zM86.663 13.062c0-1.024-.46-1.623-1.268-1.623-.811 0-1.267.599-1.267 1.623 0 1.033.456 1.628 1.267 1.628.808 0 1.268-.6 1.268-1.628zm-3.498 0c0-1.523.851-2.452 2.23-2.452 1.377 0 2.228.929 2.228 2.452 0 1.533-.847 2.457-2.228 2.457-1.383 0-2.23-.924-2.23-2.457zM88.875 10.701h.898v.75h.069c.23-.524.699-.841 1.41-.841 1.055 0 1.637.633 1.637 1.758v3.06h-.933v-2.826c0-.76-.33-1.138-1.02-1.138s-1.129.461-1.129 1.198v2.766h-.932v-4.727M98.16 9.525v1.197h1.024v.787h-1.025v2.43c0 .495.205.712.669.712.144 0 .226-.01.356-.022v.777a3.004 3.004 0 0 1-.508.048c-1.037 0-1.45-.365-1.45-1.276v-2.67h-.75v-.786h.75V9.525h.933M100.458 8.856h.925v2.604h.073c.23-.529.729-.846 1.442-.846 1.006 0 1.628.638 1.628 1.763v3.051h-.935v-2.822c0-.754-.351-1.137-1.01-1.137-.765 0-1.19.482-1.19 1.198v2.761h-.933V8.856M106.683 12.629h2.388c-.022-.743-.474-1.225-1.164-1.225s-1.172.487-1.224 1.225zm3.28 1.523c-.211.847-.967 1.367-2.047 1.367-1.354 0-2.183-.929-2.183-2.44 0-1.51.847-2.469 2.179-2.469 1.315 0 2.109.899 2.109 2.383v.325h-3.338v.053c.031.828.513 1.354 1.258 1.354.566 0 .952-.205 1.125-.573h.898z"/>
    </g>
</svg>
